<?xml version="1.0" standalone="no"?>
<!DOCTYPE svg PUBLIC "-//W3C//DTD SVG 20010904//EN"
 "http://www.w3.org/TR/2001/REC-SVG-20010904/DTD/svg10.dtd">
<svg version="1.0" xmlns="http://www.w3.org/2000/svg"
 width="550.000000pt" height="650.000000pt" viewBox="0 0 550.000000 650.000000"
 preserveAspectRatio="xMidYMid meet">
<metadata>
Created by potrace 1.15, written by Peter Selinger 2001-2017
</metadata>
<g transform="translate(0.000000,650.000000) scale(0.100000,-0.100000)"
fill="#000000" stroke="none">
<path d="M2005 6347 c-84 -38 -95 -41 -167 -39 -63 2 -96 -3 -176 -28 -55 -16
-113 -30 -129 -30 -17 0 -36 -7 -43 -15 -7 -8 -27 -15 -44 -15 -21 0 -40 -8
-55 -24 -15 -16 -38 -26 -74 -30 -28 -4 -56 -11 -62 -16 -5 -4 -52 -13 -104
-19 -59 -8 -104 -18 -120 -30 -14 -10 -39 -21 -56 -24 -69 -13 -131 -30 -140
-38 -5 -5 -18 -9 -28 -9 -29 0 -118 -62 -161 -112 -78 -90 -87 -98 -116 -98
-16 0 -32 -4 -35 -10 -3 -5 -14 -10 -24 -10 -10 0 -25 -8 -34 -18 -30 -33 -17
-173 20 -214 24 -27 4 -150 -29 -178 -28 -23 -43 -135 -28 -208 7 -31 11 -104
11 -162 -1 -72 3 -112 12 -129 12 -19 12 -30 1 -62 -8 -21 -16 -65 -19 -96 -3
-32 -13 -106 -22 -164 -15 -96 -15 -108 0 -137 8 -18 12 -32 7 -32 -14 0 -29
-53 -41 -147 -14 -113 -8 -178 19 -206 l21 -20 -37 -20 c-73 -38 -95 -71 -137
-206 -23 -73 -30 -83 -90 -136 -61 -53 -65 -59 -65 -100 0 -50 26 -78 84 -89
46 -9 101 -57 256 -225 51 -55 104 -102 131 -116 67 -35 110 -111 124 -219 4
-28 17 -71 30 -96 l22 -45 -23 -45 c-13 -25 -26 -52 -30 -60 -4 -8 -18 -27
-31 -41 -37 -40 -45 -81 -23 -122 15 -27 17 -42 10 -67 -5 -19 -5 -41 0 -55 6
-17 4 -33 -6 -54 -9 -19 -13 -40 -8 -53 4 -13 8 -39 10 -58 2 -20 11 -42 23
-51 22 -18 27 -59 16 -115 -6 -26 -1 -37 24 -66 l31 -35 -21 -27 c-12 -15 -29
-54 -39 -87 -17 -54 -17 -65 -5 -106 8 -25 24 -56 36 -69 31 -33 49 -89 49
-151 l0 -52 -45 -20 c-34 -15 -49 -29 -60 -55 -18 -43 -19 -90 -3 -119 7 -12
13 -37 13 -55 3 -69 104 -153 159 -132 22 8 32 6 55 -11 36 -27 153 -34 212
-14 23 8 61 15 86 15 29 0 66 11 106 30 59 28 64 29 102 16 22 -8 60 -26 85
-40 25 -14 55 -26 66 -26 12 0 27 -7 34 -15 27 -33 81 -36 158 -11 40 13 72
20 72 15 0 -16 45 -33 90 -34 74 -2 139 -32 155 -72 16 -37 62 -63 121 -66 22
-2 40 -10 49 -24 24 -34 68 -38 120 -12 l45 22 32 -36 c27 -31 43 -39 91 -48
73 -13 109 -5 152 33 l34 29 22 -22 c23 -23 41 -23 164 0 30 5 60 5 74 -1 18
-6 34 -4 63 10 27 14 51 18 83 15 39 -5 47 -2 75 25 37 38 53 33 80 -22 19
-40 19 -45 5 -72 -8 -16 -15 -37 -15 -47 0 -19 85 -109 132 -139 15 -10 33
-37 44 -65 23 -64 30 -71 70 -79 21 -4 36 -13 40 -26 6 -22 60 -58 85 -58 10
0 23 -16 33 -40 13 -33 25 -44 65 -62 27 -11 52 -29 54 -39 5 -20 45 -39 81
-39 35 0 104 56 111 91 4 16 18 49 31 73 19 35 32 45 58 50 37 7 50 18 61 56
4 14 16 31 26 38 11 7 19 19 19 26 0 8 7 19 15 26 8 7 20 30 27 52 6 22 19 43
27 46 31 10 61 46 67 78 8 45 -26 121 -59 129 -23 6 -24 9 -15 39 8 27 6 42
-11 81 -26 59 -18 67 56 58 44 -5 58 -2 97 21 48 28 60 51 60 117 1 46 -16 67
-60 75 -20 4 -34 12 -34 21 0 7 -12 25 -26 38 -14 13 -23 29 -20 34 4 6 -2 32
-13 58 -11 26 -22 64 -24 84 l-5 37 58 16 c33 9 62 21 65 26 4 6 20 17 36 26
27 14 35 14 78 -1 76 -25 121 5 121 78 0 12 9 28 21 35 18 12 24 11 43 -6 11
-11 32 -23 46 -27 14 -4 44 -16 67 -27 42 -19 72 -18 100 4 20 16 66 166 59
194 -4 14 -2 40 5 57 9 26 8 43 -4 85 -14 45 -14 56 -2 80 40 78 48 106 38
132 -6 16 -6 34 0 47 6 15 3 31 -12 61 -12 23 -21 43 -21 45 0 2 17 9 39 15
48 15 57 26 74 90 13 52 35 83 81 115 14 10 26 24 26 32 0 8 13 21 28 29 20
10 36 33 55 81 l27 66 -18 42 c-24 53 -36 98 -33 117 2 8 14 38 27 66 32 68
34 184 4 214 -11 11 -24 20 -29 20 -4 0 -3 18 2 39 15 55 -1 84 -60 113 -33
17 -53 35 -64 58 -17 35 -15 60 3 60 9 0 50 29 91 65 23 21 23 97 -2 144 -11
20 -25 56 -33 81 -10 35 -20 48 -45 60 -31 14 -33 18 -33 68 0 49 3 56 44 100
62 66 71 95 51 149 -15 38 -24 47 -80 73 -36 17 -71 30 -79 30 -8 0 -44 29
-80 66 -79 78 -159 120 -200 104 -14 -5 -41 -9 -60 -8 -19 1 -49 -8 -70 -22
-35 -21 -38 -21 -55 -5 -49 43 -208 48 -289 8 l-42 -20 7 72 c8 97 -11 198
-46 239 -15 17 -35 43 -44 58 -25 40 -62 61 -110 63 -70 3 -72 4 -83 34 -8 20
-24 33 -57 46 -64 24 -112 14 -157 -34 -53 -57 -52 -57 -156 0 -23 12 -34 47
-34 110 0 21 -13 75 -29 119 -27 73 -28 82 -15 108 11 23 12 41 4 81 -15 81
-39 111 -88 111 -15 0 -32 24 -68 96 -27 53 -56 99 -64 104 -8 4 -38 10 -66
14 -43 5 -55 3 -77 -15 -15 -11 -31 -18 -37 -14 -10 6 -76 -18 -165 -61 -28
-13 -55 -24 -61 -24 -20 0 -55 -47 -61 -84 -3 -20 -8 -36 -10 -36 -3 0 -16 9
-30 20 -14 11 -41 20 -59 20 -22 0 -34 5 -34 14 0 13 -29 55 -84 122 -14 18
-26 39 -26 48 0 27 -46 66 -78 66 -62 0 -89 11 -104 43 -20 44 -16 150 7 210
18 48 18 49 -4 119 -13 39 -33 80 -46 92 -16 15 -28 45 -40 106 -37 183 -80
205 -250 127z m152 -34 c4 -10 9 -20 13 -23 3 -3 14 -43 24 -90 23 -116 24
-118 46 -125 11 -4 26 -27 38 -63 21 -63 17 -92 -19 -121 -19 -15 -20 -20 -9
-41 8 -15 11 -47 8 -91 -4 -49 -2 -69 7 -73 7 -2 19 -24 27 -48 l15 -43 72 -5
73 -5 13 -38 c7 -22 23 -46 34 -54 12 -8 21 -20 21 -27 0 -7 11 -23 25 -36 14
-13 25 -32 25 -42 0 -10 9 -27 20 -38 16 -16 28 -19 54 -15 27 6 37 2 52 -18
19 -23 54 -47 71 -47 10 0 48 73 61 114 5 20 17 32 35 37 14 4 39 16 56 28 16
12 36 21 45 21 9 0 28 7 41 16 16 10 36 14 54 11 21 -4 34 -1 45 12 11 12 31
19 55 19 l38 1 52 -104 c50 -102 52 -104 88 -107 37 -3 38 -4 46 -52 6 -38 5
-52 -8 -66 -20 -22 -20 -23 14 -110 20 -52 32 -105 38 -170 l8 -95 34 -17 c19
-10 39 -24 43 -33 5 -8 19 -15 30 -15 12 0 29 -7 39 -16 17 -15 22 -15 61 0
24 10 59 35 79 57 20 21 43 37 50 35 8 -2 26 -7 42 -10 31 -7 35 -30 12 -63
-20 -28 -9 -34 44 -22 23 5 48 6 54 2 7 -4 30 -8 52 -8 34 0 42 -5 62 -35 12
-19 31 -44 42 -55 28 -28 49 -163 33 -208 -17 -49 -7 -97 32 -157 20 -30 36
-49 36 -42 0 6 6 12 13 12 7 0 17 19 23 41 8 37 13 43 53 56 32 11 50 12 66 5
15 -7 26 -7 32 -1 15 15 79 0 99 -22 23 -25 70 -24 113 2 21 13 43 18 57 15
13 -3 34 -1 48 6 35 16 99 -14 127 -59 11 -18 27 -33 34 -33 20 0 65 -63 65
-89 0 -31 18 -61 36 -61 13 0 15 7 10 33 -3 18 -3 36 0 40 7 7 95 -33 106 -48
17 -23 6 -53 -32 -89 -22 -21 -40 -42 -40 -47 0 -5 -6 -9 -14 -9 -10 0 -12
-16 -11 -67 2 -50 -2 -74 -16 -97 -30 -49 -26 -55 38 -53 l56 2 12 -46 c7 -26
20 -57 29 -70 26 -38 20 -71 -20 -96 -20 -13 -39 -23 -44 -23 -9 0 -70 -83
-70 -94 0 -3 10 -14 22 -25 18 -18 20 -24 10 -46 -9 -20 -9 -25 3 -25 28 0 65
-24 65 -42 0 -13 8 -18 30 -18 l30 0 -6 -55 c-7 -60 4 -85 38 -85 19 0 20 -4
13 -67 -4 -38 -12 -75 -19 -83 -20 -24 -38 -99 -31 -131 4 -17 2 -36 -4 -43
-8 -10 -5 -16 14 -26 33 -17 43 -55 21 -79 -9 -10 -16 -26 -16 -37 0 -11 -11
-24 -29 -32 -16 -7 -32 -23 -35 -37 -4 -14 -19 -31 -35 -39 -16 -9 -31 -22
-34 -31 -4 -8 -13 -15 -22 -15 -10 0 -15 -10 -15 -34 0 -18 -5 -48 -11 -66
l-12 -32 -58 6 c-58 7 -59 6 -69 -20 -9 -23 -7 -33 15 -64 14 -20 25 -44 25
-53 0 -9 5 -17 10 -17 16 0 12 -21 -7 -43 -17 -18 -17 -19 1 -32 17 -13 17
-18 5 -60 -7 -25 -19 -45 -26 -45 -18 0 -17 -88 2 -133 13 -31 13 -38 1 -50
-10 -10 -13 -27 -9 -56 8 -56 -23 -161 -47 -161 -9 0 -25 9 -35 20 -10 11 -30
20 -46 20 -18 0 -37 11 -57 34 l-30 35 -39 -28 c-21 -15 -46 -30 -55 -34 -13
-5 -18 -17 -18 -46 0 -22 -5 -43 -11 -46 -6 -4 -30 0 -55 10 -40 15 -46 15
-75 1 -18 -9 -38 -16 -44 -16 -7 0 -19 -8 -26 -18 -8 -10 -39 -26 -69 -35 -54
-16 -100 -47 -100 -67 0 -6 5 -10 10 -10 6 0 10 -18 10 -41 0 -23 9 -56 22
-78 21 -37 20 -49 -4 -83 -17 -24 17 -61 49 -53 20 5 23 2 23 -24 0 -34 22
-51 64 -51 22 0 26 -5 26 -28 0 -41 -48 -68 -94 -52 -23 7 -41 7 -60 0 -15 -5
-38 -10 -51 -10 -17 0 -29 -9 -41 -31 -15 -29 -14 -32 4 -53 43 -46 58 -116
26 -116 -29 0 -74 -40 -74 -66 0 -23 2 -24 74 -24 73 0 74 0 85 -30 9 -26 7
-34 -9 -50 -11 -11 -27 -20 -35 -20 -17 0 -45 -50 -45 -80 0 -11 -6 -20 -14
-20 -8 0 -17 -13 -21 -30 -3 -16 -15 -32 -25 -35 -9 -3 -20 -19 -23 -35 -5
-23 -14 -31 -47 -41 -22 -7 -40 -15 -40 -19 0 -3 -16 -32 -35 -64 -19 -32 -35
-67 -35 -77 0 -11 -6 -19 -14 -19 -8 0 -16 -6 -19 -14 -8 -22 -49 -8 -42 14 5
17 -29 40 -60 40 -8 0 -15 5 -15 10 0 6 -6 10 -14 10 -21 0 -46 57 -46 104 0
23 -4 36 -8 30 -10 -15 -47 -34 -67 -34 -16 0 -29 24 -40 73 -5 23 -8 27 -20
17 -27 -22 -57 -7 -74 37 -17 45 -57 93 -77 93 -7 0 -16 9 -19 20 -3 11 -10
20 -14 20 -5 0 -20 9 -35 21 l-26 21 20 28 c25 35 25 47 1 87 -11 17 -21 46
-23 65 -3 30 -7 34 -43 41 -22 5 -57 15 -77 22 -36 12 -37 12 -48 -15 -7 -16
-9 -34 -5 -39 4 -7 -12 -11 -47 -11 -32 0 -62 -6 -74 -15 -25 -19 -44 -19 -44
0 0 12 -4 13 -18 6 -11 -6 -46 -15 -78 -21 -32 -5 -71 -13 -86 -16 -21 -5 -27
-2 -33 15 -4 13 -15 21 -29 21 -13 0 -29 7 -36 15 -10 12 -15 12 -36 -1 -13
-9 -21 -20 -18 -26 3 -5 -2 -18 -12 -29 -21 -24 -84 -27 -84 -4 0 18 -5 19
-29 3 -16 -10 -26 -4 -71 40 -29 29 -56 52 -61 52 -4 0 -21 -14 -37 -30 -32
-31 -72 -40 -72 -16 0 8 -9 18 -20 21 -13 4 -20 15 -20 31 0 17 -5 24 -20 24
-13 0 -20 -7 -20 -20 0 -11 -6 -20 -12 -20 -32 0 -58 14 -58 29 0 43 -131 113
-209 113 -45 0 -49 2 -75 45 -32 49 -44 51 -66 6 -11 -22 -26 -33 -58 -42 -68
-18 -85 -15 -78 13 4 17 1 26 -10 30 -24 9 -59 7 -70 -4 -7 -7 -23 -2 -48 15
-21 14 -52 29 -68 32 -17 3 -34 15 -40 28 l-10 23 -80 -39 c-50 -26 -86 -38
-99 -34 -11 4 -19 2 -19 -4 0 -6 -15 -11 -34 -11 -18 0 -53 -7 -77 -15 -40
-14 -45 -14 -56 1 -10 14 -16 14 -47 3 -30 -11 -38 -11 -53 3 -28 26 -74 41
-87 28 -18 -18 -44 -11 -70 21 -29 35 -33 57 -11 65 21 8 19 31 -4 39 -55 17
-52 87 5 111 47 20 61 18 68 -10 3 -13 15 -26 25 -29 16 -4 23 2 31 28 12 37
5 62 -20 70 -13 4 -20 20 -25 55 -4 27 -4 54 0 59 3 6 -1 24 -10 40 -8 17 -15
38 -15 48 0 9 -15 32 -32 50 -28 29 -31 36 -20 53 10 17 10 20 -4 20 -12 0
-14 7 -9 32 12 54 21 72 56 108 46 47 69 81 69 102 0 20 -38 34 -53 19 -15
-15 -42 -14 -55 2 -8 9 -6 21 8 42 24 36 25 55 5 55 -11 0 -15 11 -15 36 0 27
-5 37 -20 41 -21 6 -26 18 -11 28 6 3 3 18 -7 35 -16 28 -16 30 6 53 26 27 27
40 7 57 -21 17 -19 54 5 75 11 10 20 24 20 31 0 7 9 16 20 19 22 7 26 20 9 30
-5 4 -18 0 -28 -9 -25 -22 -40 -20 -53 9 -11 25 -2 42 68 120 12 13 20 26 17
29 -3 2 -2 14 2 26 6 18 12 21 36 16 35 -7 40 13 10 41 -30 28 -60 97 -76 171
-25 118 -28 126 -51 155 -13 16 -24 35 -24 43 0 7 -24 25 -52 40 -35 17 -83
58 -140 117 -48 51 -88 95 -88 99 0 3 -27 28 -60 55 -51 41 -60 53 -60 81 0
27 -4 32 -23 32 -13 0 -28 -5 -34 -11 -14 -14 -63 -3 -63 14 0 6 29 38 64 69
57 51 67 66 86 125 36 116 61 161 97 183 45 27 57 25 86 -10 19 -21 35 -30 57
-30 17 0 47 -7 67 -15 46 -20 53 -19 53 5 0 42 -21 68 -61 74 -21 3 -39 11
-39 17 0 6 -7 17 -15 26 -9 8 -19 29 -22 45 -4 22 -11 29 -27 27 -62 -4 -72
23 -56 146 16 128 14 123 68 127 39 2 48 7 50 24 2 16 -4 23 -21 28 -32 8 -80
75 -66 93 6 7 9 19 6 28 -4 8 -2 17 4 20 5 4 9 18 10 33 1 64 9 150 17 192 8
43 9 45 40 42 41 -4 41 8 -3 65 -19 25 -35 51 -36 57 0 6 0 59 0 118 1 58 -3
109 -7 112 -5 3 -7 16 -5 30 3 13 1 26 -5 30 -14 9 8 106 30 128 10 10 18 26
18 36 0 9 7 35 15 57 20 58 19 117 -4 147 -22 28 -32 61 -35 113 -1 27 3 35
16 35 9 0 19 4 23 10 3 5 11 7 19 4 21 -8 61 12 92 47 95 107 170 169 205 169
15 0 29 5 31 11 2 6 22 11 45 11 25 0 47 5 54 14 6 8 22 14 36 14 25 0 64 16
73 31 3 5 21 9 40 10 62 3 165 21 171 31 3 5 28 10 55 11 40 2 53 7 73 30 22
26 28 28 68 22 39 -6 43 -4 43 14 0 17 6 21 33 21 17 0 75 14 127 30 104 33
131 36 159 19 21 -14 118 13 216 60 71 35 84 37 92 14z"/>
<path d="M3072 5114 c-6 -7 -16 -24 -21 -36 -33 -84 -56 -138 -90 -211 -21
-45 -50 -111 -66 -147 -62 -147 -73 -155 -119 -95 -35 46 -75 66 -119 60 -20
-3 -38 -1 -41 4 -7 11 -71 -2 -116 -23 -102 -48 -162 -93 -228 -171 -12 -15
-24 -26 -27 -24 -2 2 4 30 12 63 21 83 14 89 -115 101 -48 5 -53 3 -64 -20 -6
-14 -15 -25 -20 -25 -4 0 -8 -6 -8 -13 0 -8 -13 -33 -30 -55 -16 -23 -30 -44
-30 -47 0 -9 -124 -190 -132 -193 -4 -2 -8 -8 -8 -13 0 -20 -116 -166 -183
-232 -64 -61 -74 -68 -106 -65 l-36 3 4 55 c2 30 4 64 6 75 4 37 29 110 51
150 13 22 32 57 44 78 12 21 57 73 101 116 43 42 79 85 79 95 0 40 -110 106
-177 106 -47 0 -102 -37 -128 -87 -11 -21 -22 -40 -25 -43 -4 -3 -12 -20 -20
-38 -23 -58 -47 -57 -103 4 -29 32 -62 57 -85 65 -20 6 -43 16 -49 22 -9 6
-18 6 -28 -3 -8 -6 -19 -9 -25 -5 -5 3 -10 1 -10 -5 0 -7 -6 -10 -14 -7 -8 3
-22 -1 -33 -8 -10 -8 -26 -15 -35 -15 -10 0 -18 -3 -18 -8 0 -8 -61 -37 -147
-71 -44 -17 -53 -18 -53 -6 0 8 6 15 13 15 13 0 78 53 140 113 16 15 31 27 34
27 3 0 22 14 43 30 21 17 41 30 46 30 4 0 17 9 28 19 12 10 44 31 71 46 28 15
73 40 100 56 28 16 60 34 71 40 12 6 27 22 33 36 10 21 6 30 -30 78 -37 49
-88 85 -121 85 -12 0 -105 -45 -211 -103 -16 -8 -41 -26 -57 -41 -17 -14 -32
-26 -35 -26 -3 0 -11 -4 -18 -10 -7 -5 -55 -42 -107 -82 -120 -91 -207 -177
-253 -249 -31 -49 -35 -62 -32 -111 3 -63 21 -108 79 -194 49 -74 89 -104 138
-104 37 0 204 76 285 130 23 16 66 34 96 40 47 11 57 10 80 -5 20 -13 27 -26
27 -51 0 -44 -53 -100 -171 -181 -26 -18 -65 -40 -88 -49 -22 -9 -41 -20 -41
-26 0 -5 -4 -7 -8 -4 -5 3 -30 -1 -56 -9 -27 -8 -90 -18 -142 -21 -89 -7 -93
-8 -104 -34 -13 -32 1 -97 32 -142 10 -14 18 -30 18 -35 0 -5 10 -15 23 -21
27 -13 97 -21 97 -10 0 4 27 10 60 14 33 4 60 11 60 16 0 5 6 8 12 6 7 -1 24
4 38 12 14 7 25 12 25 11 0 -8 63 14 80 29 25 21 131 80 145 80 6 0 18 -17 27
-37 25 -54 60 -95 101 -119 31 -18 44 -19 101 -11 68 9 151 40 151 57 0 6 4
10 10 10 13 0 51 32 122 102 32 31 58 55 58 53 0 -3 -19 -50 -42 -106 -32 -78
-48 -104 -67 -112 -29 -13 -42 -27 -35 -39 3 -4 40 -8 83 -8 60 0 82 4 92 16
11 13 10 17 -4 25 -22 13 -21 31 4 80 30 60 57 52 89 -28 33 -83 49 -98 102
-94 47 2 72 17 64 38 -3 8 2 13 13 13 15 0 21 10 26 50 4 28 8 50 10 50 2 0
15 -5 29 -11 l25 -12 -29 -34 c-36 -40 -38 -66 -8 -87 29 -21 54 -20 107 4
l44 20 22 -20 c31 -29 79 -27 94 6 10 23 9 26 -9 31 -22 6 -21 22 6 75 8 15
21 51 28 80 10 37 15 45 15 26 1 -18 6 -28 16 -28 19 0 85 62 85 79 0 6 7 11
15 11 8 0 15 6 15 13 0 6 13 26 28 43 15 18 36 48 47 68 19 35 43 51 32 21 -4
-8 -1 -17 4 -21 6 -4 -2 -13 -19 -21 -16 -8 -35 -26 -43 -40 -12 -22 -11 -27
5 -39 13 -9 24 -10 37 -4 22 12 25 7 28 -48 3 -50 23 -114 37 -119 6 -2 25 33
43 77 19 44 36 79 38 77 2 -3 -17 -57 -43 -121 -38 -95 -53 -120 -76 -132 -15
-8 -28 -21 -28 -30 0 -12 14 -14 77 -12 71 3 79 5 90 28 9 19 13 21 18 9 4
-11 19 -16 50 -15 25 0 45 3 45 7 0 4 26 6 59 4 78 -4 109 3 117 27 8 26 -10
45 -51 52 -58 11 -134 92 -120 128 9 23 -10 93 -25 90 -8 -2 -10 3 -5 15 4 10
7 26 7 35 0 9 6 19 14 22 9 3 15 16 14 28 -1 13 -1 25 0 28 2 3 4 41 6 85 3
93 38 238 96 400 26 71 157 326 184 356 34 38 -2 95 -95 146 -71 40 -100 47
-119 27z m-432 -655 c0 -7 9 -9 22 -6 13 4 29 0 39 -9 14 -13 16 -21 7 -47 -6
-18 -18 -39 -27 -48 -9 -9 -23 -26 -31 -39 -40 -60 -76 -100 -87 -100 -8 0
-18 -10 -24 -22 -13 -26 -150 -131 -193 -148 -34 -13 -56 1 -56 36 0 28 57
144 71 144 5 0 9 8 9 18 0 15 64 88 134 152 27 24 113 77 129 79 4 1 7 -4 7
-10z"/>
<path d="M2633 3899 c-39 -9 -67 -39 -44 -47 17 -6 13 -47 -11 -107 -18 -41
-30 -57 -51 -65 -50 -17 -27 -35 50 -38 54 -2 73 1 83 13 11 13 10 18 -5 29
-17 12 -16 18 19 107 21 52 40 100 43 107 6 14 -22 14 -84 1z"/>
<path d="M2970 3585 c-12 -35 -30 -48 -30 -20 0 9 -9 15 -21 15 -18 0 -19 -2
-9 -15 10 -12 9 -15 -6 -16 -11 -1 -24 -1 -30 0 -7 1 -14 -5 -17 -13 -8 -20
-71 -36 -105 -27 -36 9 -202 1 -202 -10 0 -5 5 -9 10 -9 13 0 50 -37 43 -44
-3 -2 16 -15 41 -27 25 -11 46 -25 46 -29 0 -4 -9 -19 -20 -32 -11 -14 -25
-36 -30 -49 -6 -13 -20 -40 -31 -59 -10 -19 -19 -51 -19 -71 0 -20 -6 -42 -13
-48 -8 -6 -19 -37 -26 -68 -7 -32 -19 -73 -27 -91 -8 -18 -14 -38 -14 -44 0
-7 -12 -29 -26 -50 -27 -38 -54 -50 -54 -23 0 8 -6 12 -14 9 -14 -5 -26 34
-26 87 0 30 38 177 71 274 11 33 24 78 29 100 5 22 12 48 15 58 4 9 3 17 -3
17 -6 0 -12 -5 -14 -10 -2 -6 -14 -12 -28 -13 -14 -1 -39 -11 -57 -21 -27 -17
-33 -27 -38 -70 -4 -28 -22 -85 -41 -127 -22 -49 -34 -92 -34 -119 0 -24 -3
-41 -6 -38 -4 5 -5 128 -3 353 1 53 -15 175 -22 175 -5 0 -9 -7 -9 -16 0 -8
-4 -13 -9 -10 -11 7 -61 -39 -61 -57 0 -8 -12 -30 -27 -50 -56 -71 -112 -189
-93 -195 12 -4 14 -23 3 -21 -18 3 -27 -2 -17 -9 8 -5 4 -24 -13 -63 -21 -48
-28 -56 -46 -52 -20 4 -20 3 -4 -7 21 -14 23 -60 2 -60 -8 0 -30 -9 -49 -19
l-35 -20 11 30 c6 18 19 31 34 35 27 7 31 19 9 28 -8 3 -15 10 -15 16 0 5 7
10 15 10 17 0 20 27 4 32 -9 3 -9 9 0 25 6 12 11 31 11 43 0 11 9 39 21 62 11
22 23 68 25 102 9 118 10 216 2 216 -4 0 -8 -4 -8 -9 0 -5 -15 -12 -32 -16
-18 -4 -48 -21 -65 -38 -29 -27 -33 -37 -33 -83 0 -34 -5 -56 -15 -64 -9 -7
-15 -27 -14 -44 1 -29 -11 -138 -16 -144 -1 -1 -27 -4 -58 -6 l-56 -4 16 37
c19 44 29 86 41 169 8 62 2 78 -17 45 -5 -10 -13 -18 -18 -17 -42 5 -105 -71
-128 -153 -18 -66 -33 -77 -86 -66 -18 3 -29 1 -29 -6 0 -6 4 -11 10 -11 12 0
33 -40 25 -48 -3 -4 -10 -1 -14 7 -5 7 -22 11 -42 9 l-34 -4 43 -18 c23 -10
42 -24 42 -32 0 -8 7 -14 15 -14 18 0 14 -52 -10 -125 -10 -31 -16 -82 -16
-134 0 -56 -5 -94 -15 -113 -25 -48 -10 -57 17 -10 13 23 29 42 34 42 16 1 57
100 63 150 3 25 12 55 21 66 10 12 23 39 30 60 11 35 16 39 44 38 18 -1 37 -3
42 -4 6 -1 18 -2 28 -1 21 3 21 -3 -1 -70 -11 -31 -20 -87 -21 -134 -1 -43 -8
-102 -16 -129 -17 -57 -18 -66 -7 -66 4 0 15 23 25 50 10 28 24 50 31 50 8 0
19 12 25 28 7 15 19 40 28 56 8 15 17 49 19 74 3 25 6 47 7 49 2 1 20 -2 41
-8 l38 -11 -7 -66 c-6 -59 -15 -109 -31 -164 -3 -10 -1 -18 5 -18 6 0 16 18
22 40 7 22 18 40 25 40 6 0 17 14 23 30 5 17 14 30 18 30 10 0 36 64 38 92 2
25 3 26 73 34 l62 7 0 -45 c0 -24 4 -48 9 -53 19 -23 42 -136 35 -180 -4 -29
-3 -45 4 -45 6 0 14 25 17 55 4 30 11 53 15 50 12 -7 22 111 15 170 -5 34 -3
55 4 59 7 5 11 -4 11 -26 1 -45 48 -127 89 -155 39 -26 119 -31 160 -10 54 27
131 181 131 261 0 11 6 27 14 35 8 10 16 51 19 108 3 50 9 97 13 104 4 7 7 36
6 64 -1 62 4 70 45 78 44 9 46 -5 18 -115 -67 -263 -67 -264 -69 -500 -1 -123
-5 -229 -9 -235 -5 -7 -4 -13 2 -13 5 0 18 25 27 55 10 30 21 52 26 49 4 -3 8
4 8 16 0 11 7 37 16 58 9 23 15 65 15 109 0 40 4 75 9 78 6 3 10 17 10 30 0
14 9 42 21 64 13 25 18 48 14 61 -4 13 -1 28 9 38 8 10 20 40 27 67 6 28 15
58 20 67 5 10 9 24 9 33 0 14 21 68 46 117 8 14 14 33 14 41 0 17 26 22 163
31 43 3 86 10 97 16 10 5 51 10 91 10 80 0 85 8 13 21 -27 5 -50 13 -53 18 -9
13 -144 30 -163 19 -23 -12 -148 1 -148 16 0 6 4 26 9 44 13 43 -4 41 -19 -3z"/>
<path d="M3663 3468 c3 -10 -20 -13 -97 -13 -55 0 -110 -4 -121 -8 -19 -8 -19
-9 5 -22 14 -8 35 -14 48 -15 12 0 22 -6 22 -14 0 -7 14 -19 30 -26 20 -8 29
-18 26 -29 -2 -9 -10 -41 -16 -71 -7 -30 -23 -84 -36 -120 -13 -36 -24 -74
-24 -85 0 -11 -9 -45 -20 -75 -11 -30 -18 -61 -15 -68 7 -20 -22 -70 -46 -77
-12 -4 -38 -21 -58 -39 -54 -48 -102 -81 -138 -95 -18 -7 -38 -20 -45 -29 -11
-13 -10 -14 12 -7 20 6 71 28 124 53 5 3 6 0 2 -7 -10 -16 -1 -14 44 9 54 28
70 26 70 -7 1 -27 2 -27 21 10 13 25 33 44 57 54 20 8 56 33 81 54 24 22 61
44 82 51 63 18 197 146 200 190 0 7 7 -1 14 -18 13 -28 12 -38 -5 -85 -11 -30
-20 -54 -20 -55 0 -6 -68 -24 -91 -24 -16 0 -29 -4 -29 -10 0 -5 9 -10 21 -10
11 0 18 -4 14 -9 -3 -6 2 -14 11 -19 9 -5 14 -13 13 -18 -2 -5 9 -15 24 -22
30 -15 33 -26 12 -62 -8 -14 -14 -31 -15 -37 0 -25 15 -12 34 26 14 29 26 40
50 45 17 3 51 11 76 16 50 12 162 28 255 36 33 3 66 10 72 16 7 6 51 13 98 16
47 2 88 9 91 13 2 5 -18 11 -46 15 -28 4 -48 9 -45 12 3 3 -11 11 -31 18 -34
12 -244 13 -366 2 -53 -5 -58 2 -28 39 11 14 20 31 20 38 0 16 52 35 94 35 18
0 37 5 43 11 6 6 43 14 82 17 72 5 100 22 37 22 -18 0 -39 6 -45 14 -15 18
-63 30 -116 31 -49 0 -54 16 -25 80 12 26 22 60 22 76 l1 29 72 0 c39 0 75 3
79 7 16 16 80 31 115 26 53 -7 61 13 9 21 -23 4 -45 12 -49 17 -12 20 -81 37
-106 26 -17 -7 -29 -7 -46 2 -13 6 -49 10 -87 8 -36 -2 -75 0 -87 4 -12 5 -49
2 -85 -6 -35 -7 -57 -14 -50 -14 7 -1 19 -16 27 -33 7 -18 27 -41 43 -50 28
-17 29 -20 20 -60 -4 -24 -11 -60 -15 -80 -4 -28 -11 -38 -23 -38 -10 0 -21
-6 -24 -12 -3 -7 -3 -2 2 12 22 76 -4 134 -101 232 -29 29 -47 55 -43 63 3 8
1 17 -5 20 -5 4 -12 -1 -15 -9 -9 -25 -43 -21 -37 4 4 14 0 20 -12 20 -10 0
-15 -5 -12 -12z m102 -258 c18 -37 2 -82 -50 -137 -25 -26 -45 -50 -45 -53 0
-10 -92 -72 -98 -66 -3 4 3 16 14 29 26 29 51 85 60 133 4 21 13 45 21 52 7 7
13 23 13 35 0 13 7 33 16 45 16 23 17 23 36 5 11 -10 26 -29 33 -43z"/>
<path d="M3105 3418 c-11 -7 -27 -12 -35 -13 -59 -7 -90 -39 -115 -119 -20
-67 -13 -103 37 -188 15 -27 24 -48 21 -48 -4 0 -2 -5 5 -12 7 -7 12 -22 12
-35 0 -28 16 -30 23 -3 3 11 10 20 15 20 6 0 8 -9 5 -20 -3 -11 0 -20 6 -20 6
0 11 5 11 12 0 30 32 -22 35 -58 6 -63 -8 -77 -71 -72 -30 3 -54 1 -54 -4 0
-8 -28 12 -68 50 -23 22 -24 29 -19 93 3 38 2 67 -3 64 -13 -8 -31 -102 -23
-122 6 -15 4 -16 -9 -6 -13 11 -15 5 -15 -50 -1 -66 14 -97 48 -97 10 0 22 -7
27 -17 7 -12 28 -17 78 -20 95 -6 150 11 180 56 13 20 31 46 40 59 26 35 4
116 -52 192 -24 33 -48 60 -53 60 -15 0 -51 83 -51 116 0 37 33 71 77 80 28 5
33 3 47 -24 9 -17 16 -45 16 -62 0 -16 5 -30 10 -30 6 0 10 7 10 15 0 8 11 17
25 21 29 7 38 32 33 90 -3 34 -9 43 -52 72 -51 34 -104 42 -141 20z"/>
<path d="M2941 2672 c-6 -21 -14 -52 -17 -70 -4 -18 -10 -32 -14 -32 -5 0 -11
-15 -15 -32 -4 -18 -15 -59 -26 -90 -10 -31 -23 -95 -28 -142 -6 -47 -19 -105
-31 -130 -11 -25 -24 -62 -28 -83 l-8 -38 -11 45 c-6 25 -16 68 -22 95 -7 28
-20 67 -31 89 -18 37 -18 64 0 151 5 23 -1 27 -14 9 -14 -18 -15 -18 -25 9
-11 28 -31 29 -31 1 0 -8 -4 -14 -10 -14 -5 0 -10 -5 -10 -12 0 -7 -13 -26
-28 -43 -19 -20 -33 -50 -42 -90 -6 -33 -18 -80 -26 -104 -8 -25 -14 -60 -14
-79 0 -20 -3 -33 -6 -29 -4 3 -6 73 -5 154 1 81 2 155 3 163 0 8 -5 53 -10
100 -7 60 -12 78 -17 63 -4 -13 -11 -21 -15 -18 -11 7 -60 -41 -60 -58 0 -8
-12 -30 -27 -50 -56 -71 -112 -189 -93 -195 12 -4 14 -23 3 -21 -18 3 -27 -2
-16 -9 8 -5 3 -26 -18 -71 -16 -35 -29 -74 -29 -87 0 -14 -6 -24 -14 -24 -8 0
-32 -10 -55 -22 l-41 -21 -55 27 c-30 14 -55 28 -55 30 0 2 20 16 44 30 62 36
164 134 187 178 24 46 24 87 2 133 -14 29 -32 44 -83 68 -61 30 -72 32 -172
32 -74 0 -108 4 -108 11 0 17 -50 25 -166 28 -56 2 -106 6 -112 10 -6 4 -21 2
-32 -4 -16 -9 -20 -8 -20 5 0 9 -6 15 -12 12 -7 -2 -12 -10 -10 -16 1 -6 -10
-12 -25 -12 -126 -3 -273 -19 -273 -30 0 -5 7 -9 15 -9 8 0 15 -7 15 -15 0 -8
5 -15 10 -15 6 0 10 -6 10 -13 0 -6 20 -23 45 -36 34 -18 53 -22 80 -17 l36 7
-6 -33 c-4 -18 -14 -62 -23 -98 -19 -71 -17 -70 -134 -87 -35 -5 -55 -23 -25
-23 7 0 21 -14 31 -31 10 -17 29 -35 42 -41 30 -14 30 -17 -2 -96 -14 -35 -26
-74 -26 -85 -1 -39 -18 -211 -23 -234 -3 -13 -1 -23 4 -23 5 0 14 23 21 50 7
29 18 50 25 50 7 0 16 14 20 30 4 17 10 30 15 30 11 0 40 75 40 103 0 12 7 33
15 47 8 14 26 49 41 78 25 51 26 52 69 52 24 0 47 5 51 11 4 8 30 10 76 7 54
-4 68 -3 64 7 -3 8 2 16 10 19 8 3 13 2 10 -3 -3 -5 1 -14 9 -21 7 -6 11 -18
8 -26 -3 -7 2 -16 10 -20 14 -5 14 -10 1 -39 -8 -19 -14 -45 -14 -57 0 -13 -9
-52 -20 -86 -13 -43 -20 -92 -20 -150 0 -48 -7 -108 -15 -134 -18 -61 -6 -62
23 -3 12 25 26 45 32 45 5 0 10 5 10 11 0 5 10 31 21 57 12 25 24 65 26 87 2
22 15 63 28 90 13 28 29 62 34 78 l11 27 37 -15 c21 -9 58 -29 84 -45 25 -17
53 -30 61 -30 12 0 75 -39 107 -66 3 -3 -11 -69 -25 -116 -3 -10 -1 -18 4 -18
6 0 13 11 16 24 3 13 18 37 32 54 24 26 30 29 53 21 14 -6 43 -27 63 -46 46
-45 56 -40 23 10 -14 20 -25 43 -25 51 0 9 -4 16 -10 16 -16 0 -39 55 -30 70
4 7 6 18 4 24 -8 23 13 35 74 42 l62 7 0 -45 c0 -24 4 -48 9 -53 19 -23 42
-136 35 -180 -4 -29 -3 -45 4 -45 6 0 14 25 17 55 4 30 11 52 16 49 5 -3 9 12
10 33 1 47 21 118 34 118 12 0 50 54 60 84 3 12 11 21 16 21 5 0 9 5 9 10 0 6
-7 10 -15 10 -20 0 -19 8 10 54 l24 40 21 -48 c11 -26 20 -51 20 -55 0 -5 12
-26 26 -47 25 -37 39 -94 22 -94 -4 0 -8 -9 -8 -20 0 -22 18 -27 26 -7 3 9 16
12 35 9 23 -3 37 2 60 24 16 15 29 36 29 45 0 10 4 20 8 23 4 2 6 -10 4 -27
-3 -31 29 -120 48 -132 5 -3 39 -7 77 -9 57 -2 74 1 105 20 20 13 40 30 45 37
4 8 18 19 31 26 12 6 22 19 22 29 1 13 6 10 21 -10 11 -16 27 -28 35 -28 23 0
26 -23 9 -64 -22 -52 -12 -57 16 -8 17 29 32 42 54 46 16 3 50 11 75 16 50 12
162 28 255 36 33 3 66 10 72 16 7 6 51 13 98 16 47 2 88 9 91 13 2 5 -18 11
-46 15 -28 4 -48 9 -45 12 3 3 -11 11 -31 18 -35 12 -235 13 -366 1 -53 -4
-58 3 -28 40 11 14 20 31 20 38 0 16 52 35 94 35 18 0 37 5 43 11 6 6 43 14
82 17 72 5 100 22 37 22 -18 0 -39 6 -45 14 -15 18 -63 30 -116 31 -49 0 -54
16 -25 80 12 26 22 60 22 76 l1 29 72 0 c39 0 75 3 79 7 16 17 80 30 121 25
60 -6 60 14 0 23 -25 3 -43 10 -40 14 9 15 -88 39 -113 28 -16 -7 -29 -7 -45
2 -13 6 -49 10 -87 8 -36 -2 -75 0 -88 5 -14 4 -41 3 -66 -3 -37 -9 -47 -8
-77 10 -39 24 -98 27 -137 7 -39 -20 -132 -123 -132 -146 0 -11 -11 -27 -24
-35 -13 -9 -26 -25 -29 -35 -9 -34 -29 -24 -22 10 4 17 8 92 10 168 2 75 6
165 10 200 8 70 1 82 -14 24z m-1293 -263 c-21 -11 -38 -22 -38 -25 0 -7 18
-3 93 21 26 8 45 10 41 4 -3 -6 11 -9 38 -8 65 2 149 -12 145 -25 -3 -6 -9
-10 -15 -9 -19 4 -92 -102 -99 -141 -8 -48 -15 -51 -51 -21 -35 29 -46 32 -33
8 8 -16 3 -18 -62 -17 -159 2 -149 0 -142 35 4 17 18 56 31 85 13 30 24 63 24
74 0 13 7 20 19 20 11 0 23 5 26 10 3 6 18 10 33 10 26 -1 25 -2 -10 -21z
m436 -32 c56 -32 64 -48 43 -91 -9 -20 -23 -36 -31 -36 -8 0 -36 -18 -61 -40
-42 -37 -89 -59 -101 -48 -2 3 2 20 10 39 7 19 16 67 20 108 3 40 9 77 12 82
10 16 69 9 108 -14z m1297 -58 c-1 -18 -7 -43 -12 -56 -5 -14 -9 -35 -9 -49 0
-17 -5 -24 -20 -24 -11 0 -20 -5 -20 -11 0 -8 -4 -8 -12 -2 -9 7 -19 4 -30 -9
-17 -17 -17 -18 0 -18 19 0 35 -24 47 -69 4 -14 3 -21 -2 -18 -6 4 -28 -8 -49
-26 -48 -40 -99 -73 -90 -58 12 19 -9 12 -50 -17 -21 -16 -64 -43 -94 -60
l-55 -31 1 32 c4 69 40 172 78 221 21 27 51 76 67 108 16 32 33 58 38 58 5 0
14 14 21 30 20 49 33 48 27 -1 -7 -54 -15 -79 -35 -102 -17 -19 -8 -37 9 -20
6 6 18 9 25 6 8 -3 14 0 14 6 0 6 11 16 25 21 31 12 64 79 65 128 l0 34 32
-21 c28 -17 32 -25 29 -52z"/>
</g>
</svg>
